<?xml version="1.0" encoding="UTF-8"?>
<svg xmlns="http://www.w3.org/2000/svg" viewBox="0 0 40 40">
  <defs>
    <style>
      .cls-1 {
        fill: #fff;
        stroke: #747f8a;
      }

      .cls-2 {
        fill: #234;
      }

      .cls-2, .cls-3 {
        stroke-width: 0px;
      }

      .cls-3 {
        fill: #d32;
      }
    </style>
  </defs>
  <g id="Circles">
    <circle class="cls-1" cx="20" cy="20" r="19.5"/>
  </g>
  <g id="Layer_1" data-name="Layer 1">
    <path class="cls-3" d="m28.4,10.3c-.3-.3-.9-.4-1.2,0,0,0-9.2,8.1-9.9,8.8-.8-.3-5.4-2.1-5.4-2.1-.4-.2-.9,0-1.1.4s-.1.9.2,1.2l5.7,4.3c.4.3.9.2,1.2-.1l10.6-11.2c.2-.4.2-1-.1-1.3Z"/>
    <path class="cls-2" d="m32.5,10.7c-.4-.3-.9-.3-1.2.1,0,0-13,13.6-14,14.7-1-.8-5.8-4.5-5.8-4.5-.3-.3-.8-.2-1.1,0-.3.3-.4.8-.2,1.1l6.5,10.8c.2.3.4.4.7.4s.6-.1.8-.4l14.5-21.1c.3-.3.2-.8-.2-1.1Z"/>
  </g>
</svg>