<?xml version="1.0" encoding="UTF-8"?>
<svg xmlns="http://www.w3.org/2000/svg" viewBox="0 0 40 40">
  <defs>
    <style>
      .cls-1 {
        fill: #fff;
        stroke: #747f8a;
      }

      .cls-2 {
        fill: #d32;
        stroke-width: 0px;
      }
    </style>
  </defs>
  <g id="Circles">
    <circle class="cls-1" cx="20" cy="20" r="19.5"/>
  </g>
  <g id="Layer_1" data-name="Layer 1">
    <path class="cls-2" d="m17.4,11.7c0-1.1.9-1.9,1.9-1.9h11.5c1.1,0,1.9.9,1.9,1.9v16.6c0,1.1-.9,1.9-1.9,1.9h-8.4c.1-.2.1-.4.1-.6v-9.7c.7-.3,1.3-1,1.3-1.8v-1.3c0-1.1-.9-1.9-1.9-1.9h-4.5v-3.2Zm12.7,12c.2-.2.2-.7,0-.9l-2.6-2.6c-.2-.2-.7-.2-.9,0l-2.6,2.5c-.2.2-.2.7,0,.9s.7.2.9,0l1.5-1.5v4.9c0,.4.3.6.6.6s.6-.3.6-.6v-4.9l1.5,1.5c.3.3.7.3,1,.1h0Zm-22.9-6.9c0-.4.3-.6.6-.6h14.1c.4,0,.6.3.6.6v1.3c0,.4-.3.6-.6.6H7.8c-.4,0-.6-.3-.6-.6,0,0,0-1.3,0-1.3Zm14.1,3.2v9c0,.7-.6,1.3-1.3,1.3h-10.2c-.7,0-1.3-.6-1.3-1.3v-9h12.8Zm-8.3,2.6c-.4,0-.6.3-.6.6,0,.4.3.6.6.6h3.8c.4,0,.6-.3.6-.6,0-.4-.3-.6-.6-.6h-3.8Z"/>
  </g>
</svg>