<?xml version="1.0" encoding="UTF-8"?>
<svg xmlns="http://www.w3.org/2000/svg" viewBox="0 0 40 40">
  <defs>
    <style>
      .cls-1 {
        fill: #fff;
        stroke: #747f8a;
      }

      .cls-2 {
        fill: #d32;
        stroke-width: 0px;
      }
    </style>
  </defs>
  <g id="Circles">
    <circle class="cls-1" cx="20" cy="20" r="19.5"/>
  </g>
  <g id="Layer_1" data-name="Layer 1">
    <path class="cls-2" d="m13.5,9c1.5,0,2.7,1.2,2.7,2.7s-1.2,2.7-2.7,2.7-2.7-1.2-2.7-2.7,1.2-2.7,2.7-2.7Zm-3.1,20.6v-3.4h-.8c-.5,0-.8-.5-.7-.9l1.3-4-1.2,1.6c-.5.6-1.3.7-1.9.3-.6-.5-.7-1.3-.3-1.9l2.5-3.3c1-1.3,2.5-2,4.1-2s3.1.7,4.1,2l2.5,3.3c.5.6.3,1.5-.3,1.9-.6.5-1.5.3-1.9-.3l-1.2-1.6,1.3,4c.2.4-.2.9-.7.9h-.8v3.4c0,.8-.6,1.4-1.4,1.4s-1.4-.6-1.4-1.4v-3.4h-.7v3.4c0,.8-.6,1.4-1.4,1.4-.5,0-1.1-.6-1.1-1.4ZM27.2,9c1.5,0,2.7,1.2,2.7,2.7s-1.2,2.7-2.7,2.7-2.7-1.2-2.7-2.7,1.2-2.7,2.7-2.7Zm-.3,16.5v4.1c0,.8-.6,1.4-1.4,1.4s-1.4-.6-1.4-1.4v-7.7l-.6.9c-.4.6-1.3.8-1.9.4s-.8-1.3-.4-1.9l2.2-3.5c.8-1.2,2.1-1.9,3.5-1.9h.5c1.4,0,2.7.7,3.5,1.9l2.2,3.5c.4.6.2,1.5-.4,1.9s-1.5.2-1.9-.4l-.6-.9v7.7c0,.8-.6,1.4-1.4,1.4s-1.4-.6-1.4-1.4v-4.1s-.5,0-.5,0Z"/>
  </g>
</svg>