<?xml version="1.0" encoding="UTF-8"?>
<svg xmlns="http://www.w3.org/2000/svg" viewBox="0 0 40 40">
  <defs>
    <style>
      .cls-1 {
        fill: #fff;
        stroke: #747f8a;
      }

      .cls-2 {
        fill: #d32;
        stroke-width: 0px;
      }
    </style>
  </defs>
  <g id="Circles">
    <circle class="cls-1" cx="20" cy="20" r="19.5"/>
  </g>
  <g id="Layer_1" data-name="Layer 1">
    <g>
      <path class="cls-2" d="m18.6,19.9h-9.8c-.5,0-.9.4-.9.9v9.8c0,.5.4.9.9.9h9.8c.5,0,.9-.4.9-.9v-9.8c0-.5-.4-.9-.9-.9Zm-4.9,8.9c-1.7,0-3.1-1.4-3.1-3.1s1.4-3.1,3.1-3.1,3.1,1.4,3.1,3.1-1.4,3.1-3.1,3.1Z"/>
      <path class="cls-2" d="m32,19.9h-9.8c-.5,0-.9.4-.9.9v9.8c0,.5.4.9.9.9h9.8c.5,0,.9-.4.9-.9v-9.8c0-.5-.3-.9-.9-.9Zm-1.6,6.4l-2.7,2.7c-.2.2-.4.3-.6.3s-.4-.1-.6-.3l-2.7-2.7c-.4-.4-.4-.9,0-1.3l2.7-2.7c.4-.4.9-.4,1.3,0l2.7,2.7c.3.4.3,1-.1,1.3Z"/>
      <path class="cls-2" d="m23,6.5h-9.8c-.5,0-.9.4-.9.9v9.8c0,.5.4.9.9.9h9.8c.5,0,.9-.4.9-.9V7.4c0-.6-.4-.9-.9-.9Zm-1.5,8c-.2.3-.4.4-.8.4h-5.4c-.4,0-.6-.2-.8-.4-.2-.3-.2-.6,0-.9l2.7-4.5c.4-.5,1.3-.5,1.6,0l2.7,4.5c.1.3.1.6,0,.9Z"/>
    </g>
  </g>
</svg>