<?xml version="1.0" encoding="UTF-8"?>
<svg xmlns="http://www.w3.org/2000/svg" viewBox="0 0 40 40">
  <defs>
    <style>
      .cls-1 {
        fill: #fff;
        stroke: #747f8a;
      }

      .cls-2 {
        fill-rule: evenodd;
      }

      .cls-2, .cls-3 {
        fill: #d32;
        stroke-width: 0px;
      }

      .cls-4 {
        fill: none;
        stroke: #fff;
        stroke-width: 2px;
      }
    </style>
  </defs>
  <g id="Circles">
    <circle class="cls-1" cx="20" cy="20" r="19.5"/>
  </g>
  <g id="Layer_1" data-name="Layer 1">
    <g id="Layer_1-2" data-name="Layer_1">
      <g>
        <path class="cls-3" d="m21.8,22.7c3.4,1.7,7,.8,8.6.3.1-3.1-1.2-6.2-3.8-8.1q-.1-.1-.2-.1h-9.6c-.1,0-.2.1-.2.1-2.5,1.7-3.7,4.6-3.8,7.4,1.7-.5,5.4-1.3,9,.4Z"/>
        <path class="cls-3" d="m21.4,23.2c-3.4-1.7-7-.8-8.6-.3.1,3.4,1.9,6.7,5.3,8.1h7.09c3.07-1.43,4.82-4.27,5.11-7.4-2.7.8-6,1-8.9-.4Z"/>
      </g>
      <path class="cls-2" d="m24.4,15.4h-5.9c-.2,0-.3-.1-.3-.3v-2.9c0-.2.1-.3.3-.3h5.9c.2,0,.3.1.3.3v2.9c0,.2-.1.3-.3.3Z"/>
      <path class="cls-2" d="m23.2,12.5h-3.3c-.2,0-.3-.1-.3-.3v-3c0-.2.1-.3.3-.3h3.3c.2,0,.3.1.3.3v3c-.1.2-.2.3-.3.3Zm-.6-1.8c0-.8-1.3-.8-1.3,0,0,.9,1.3.9,1.3,0Z"/>
      <path class="cls-2" d="m11.2,18.2c-.4,0-.6-.4-.4-.8,1.6-2.5,4-4.2,7-4.3.4,0,1.1-.1,1.2.3.1.4-.1.8-.5.7-.7-.1-1.8,0-2.5.2-1.9.6-3.4,1.9-4.4,3.5,0,.3-.2.4-.4.4Z"/>
      <path class="cls-2" d="m8.2,22c-1.6,0-1.7-2,0-3.7,2-2,4.2-1.4,3.6.7-.6,1.5-2.2,3-3.6,3Z"/>
    </g>
    <path class="cls-4" d="m30.84,23.41c-1.66.62-5.5,1.56-9.13-.31-3.74-1.87-7.57-1.04-9.44-.42"/>
  </g>
</svg>