<?xml version="1.0" encoding="UTF-8"?>
<svg xmlns="http://www.w3.org/2000/svg" viewBox="0 0 40 40">
  <defs>
    <style>
      .cls-1 {
        fill: #fff;
        stroke: #747f8a;
      }

      .cls-2 {
        fill: #d32;
        stroke-width: 0px;
      }
    </style>
  </defs>
  <g id="Circles">
    <circle class="cls-1" cx="20" cy="20" r="19.5"/>
  </g>
  <g id="Layer_1" data-name="Layer 1">
    <g id="Layer_61" data-name="Layer 61">
      <path class="cls-2" d="m20,16.9c-1.7,0-3.1,1.4-3.1,3.1.1,4.2,6.2,4.2,6.3,0,0-1.7-1.5-3.1-3.2-3.1Z"/>
      <path class="cls-2" d="m32.8,19.5c-.6-1.9-2.4-3.7-4.1-3.4-.2-.4-.4-.8-.6-1.1.9-.5,2-.4,2.8.2.1.1.3.1.4,0,.2-.1.3-.4.2-.6,0,0,0-.1-.1-.1-1.4-1.4-3.6-2.3-5-1.5-.3-.2-.6-.5-.8-.7.7-.8,1.7-1.1,2.7-.9.2,0,.3,0,.4-.2.2-.2.1-.5-.1-.6,0,0-.1,0-.1-.1-1.9-.8-4.2-.8-5.2.5-.4-.2-.8-.3-1.2-.4.3-1,1.1-1.7,2.1-1.9.2,0,.3-.2.3-.3.1-.2-.1-.5-.3-.6h-.1c-2,0-4.2.9-4.6,2.5-.4,0-.7,0-1.1.1-.1-1,.4-2,1.2-2.5.3,0,.4-.2.4-.3,0-.2-.2-.4-.5-.4h-.1c-1.9.8-3.5,2.4-3.3,4-.4.2-.8.4-1.1.6-.5-.9-.4-2,.2-2.8.1-.2.1-.4-.1-.5-.2-.2-.4-.2-.6,0h0c-1.2,1.2-2.4,3.5-1.5,5-.2.3-.5.5-.7.8-.8-.7-1.1-1.7-.9-2.7,0-.2,0-.3-.2-.4-.2-.2-.5-.1-.6.1,0,0,0,.1-.1.1-.8,1.8-.8,4.2.5,5.2-.1.4-.3.8-.4,1.2-1-.3-1.7-1.1-1.9-2.1,0-.2-.2-.3-.3-.3-.2-.1-.5.1-.6.3v.1c0,2,.9,4.2,2.5,4.6,0,.4.1.7.1,1.1-1,.1-2-.4-2.5-1.2-.1-.1-.2-.2-.4-.2s-.4.2-.4.5v.1c.8,1.8,2.3,3.5,4,3.3.2.4.4.8.6,1.1-.9.5-2,.4-2.8-.2-.1-.1-.3-.1-.4,0-.2.1-.3.4-.2.6,0,0,0,.1.1.1,1.4,1.3,3.3,2.4,5,1.5.3.3.6.5.8.7-.7.8-1.7,1.1-2.7.9-.2,0-.3,0-.4.2-.2.2-.1.5.1.6,0,0,.1,0,.1.1,1.6.7,4.1.9,5.2-.5.4.1.8.3,1.2.4-.3,1-1.1,1.7-2.1,1.9-.2.1-.3.3-.3.6.1.2.2.3.4.3h0c2,0,4.2-.9,4.6-2.5.4,0,.7,0,1.1-.1.1,1-.4,2-1.2,2.5-.2.1-.3.4-.2.6.1.1.2.2.4.2h0c1.9-.6,3.7-2.4,3.5-4.1.4-.2.8-.4,1.1-.6.5.9.4,2-.2,2.8-.1.2-.1.5.1.6.1,0,.2.1.3.1h0c.1,0,.2,0,.3-.1,1.4-1.4,2.3-3.6,1.5-5,.3-.3.5-.6.7-.8.8.7,1.1,1.7.9,2.7,0,.2.1.5.4.5h.1c.2,0,.3-.1.4-.3.8-1.8.8-4.2-.5-5.2.1-.4.3-.8.3-1.2,1,.3,1.7,1.1,1.9,2.1.1.2.2.3.4.3h0c.2,0,.4-.2.4-.4,0-2-.9-4.2-2.5-4.6,0-.4,0-.7-.1-1.1,1-.1,2,.4,2.5,1.2.1.1.2.2.4.2h0c.4-.1.5-.3.5-.6h0Zm-12.8,4.5c-2.2,0-4-1.8-4-4,.2-5.4,7.8-5.3,8.1,0-.1,2.2-1.9,4-4.1,4Z"/>
    </g>
  </g>
</svg>