<?xml version="1.0" encoding="UTF-8"?>
<svg xmlns="http://www.w3.org/2000/svg" viewBox="0 0 40 40">
  <defs>
    <style>
      .cls-1 {
        fill: #fff;
        stroke: #747f8a;
      }

      .cls-2 {
        fill: #d32;
        stroke-width: 0px;
      }
    </style>
  </defs>
  <g id="Circles">
    <circle class="cls-1" cx="20" cy="20" r="19.5"/>
  </g>
  <g id="Layer_1" data-name="Layer 1">
    <path class="cls-2" d="m14.3,8.4l-3,3c-.2.2-.3.5-.2.8.1.3.4.5.7.5h5.9c.3,0,.6-.2.7-.5s.1-.6-.2-.8l-3-3c-.1-.3-.6-.3-.9,0Zm-3.2,5.7c-1.6,0-3,1.3-3,3v11.8c0,1.6,1.3,3,3,3h17.7c1.6,0,3-1.3,3-3v-11.9c0-1.6-1.3-3-3-3H11.1v.1Zm4.5,4.4c1.2,0,2.2,1,2.2,2.2s-1,2.2-2.2,2.2-2.2-1-2.2-2.2.9-2.2,2.2-2.2Zm-3.7,8.1c0-1.2,1-2.2,2.2-2.2h3c1.2,0,2.2,1,2.2,2.2v.7c0,.8-.7,1.5-1.5,1.5h-4.4c-.8,0-1.5-.7-1.5-1.5,0,0,0-.7,0-.7Zm8.8,0c0-1.2,1-2.2,2.2-2.2h3c1.2,0,2.2,1,2.2,2.2v.7c0,.8-.7,1.5-1.5,1.5h-4.4c-.8,0-1.5-.7-1.5-1.5,0,0,0-.7,0-.7Zm1.5-5.9c0-1.2,1-2.2,2.2-2.2s2.2,1,2.2,2.2-1,2.2-2.2,2.2-2.2-.9-2.2-2.2Zm2.4-8.3c.3.3.8.3,1,0l3-3c.2-.2.3-.5.2-.8-.1-.3-.4-.5-.7-.5h-5.9c-.3,0-.6.2-.7.5s-.1.6.2.8l2.9,3Z"/>
  </g>
</svg>