<?xml version="1.0" encoding="UTF-8"?>
<svg id="Circles" xmlns="http://www.w3.org/2000/svg" viewBox="0 0 40 40">
  <defs>
    <style>
      .cls-1 {
        fill: #fff;
        stroke: #747f8a;
      }

      .cls-2 {
        fill: #d32;
        stroke-width: 0px;
      }
    </style>
  </defs>
  <circle class="cls-1" cx="19.5" cy="20" r="19.5"/>
  <path class="cls-2" d="m29.5,9c.3-.5.9-.7,1.4-.4s.7.9.5,1.4l-6.1,13.7c.1.1.2.2.3.3l4.4-2.5c.5-.3,1.1-.1,1.4.3s.3,1-.1,1.4l-3.9,3.9h-3.2c-.6-1.7-2.2-2.9-4.1-2.9s-3.5,1.2-4.1,2.9h-3.6l-3.4-2.3c-.4-.3-.6-.9-.4-1.4.2-.5.8-.7,1.3-.6l4.4,1.4c.1-.2.3-.3.4-.5l-2.8-4.7c-.3-.5-.2-1,.2-1.4s1-.3,1.4,0l4.6,3.9h.2l.6-6.4c.1-.6.5-1,1.1-1s1,.4,1.1,1l.6,6.4,7.8-12.5ZM10,28.6h21.4c.8,0,1.4.6,1.4,1.4s-.6,1.4-1.4,1.4H8.4c-.8,0-1.4-.6-1.4-1.4s.6-1.4,1.4-1.4h1.6Zm10-20.1c.6,0,1.1.5,1.1,1.1v2.2c0,.6-.5,1.1-1.1,1.1s-1.1-.5-1.1-1.1v-2.2c0-.6.5-1.1,1.1-1.1Z"/>
</svg>