<?xml version="1.0" encoding="UTF-8"?>
<svg xmlns="http://www.w3.org/2000/svg" viewBox="0 0 40 40">
  <defs>
    <style>
      .cls-1 {
        fill: #fff;
        stroke: #747f8a;
      }

      .cls-2 {
        fill: #d32;
        stroke-width: 0px;
      }
    </style>
  </defs>
  <g id="Circles">
    <circle class="cls-1" cx="20" cy="20" r="19.5"/>
  </g>
  <g id="Layer_1" data-name="Layer 1">
    <path class="cls-2" d="m18.72,11.04h-2.99c-1.08,0-2.05.68-2.41,1.7l-4.71,13.3c-.08.23-.12.48-.12.73,0,1.2.98,2.18,2.18,2.18h8.06v-2.56c0-.71.57-1.28,1.28-1.28s1.28.57,1.28,1.28v2.56h8.06c1.21,0,2.18-.98,2.18-2.18,0-.25-.04-.5-.12-.73l-4.71-13.3c-.36-1.02-1.33-1.7-2.41-1.7h-2.99v2.56c0,.71-.57,1.28-1.28,1.28s-1.28-.57-1.28-1.28v-2.56Zm2.56,7.68v2.56c0,.71-.57,1.28-1.28,1.28s-1.28-.57-1.28-1.28v-2.56c0-.71.57-1.28,1.28-1.28s1.28.57,1.28,1.28Z"/>
  </g>
</svg>