<?xml version="1.0" encoding="UTF-8"?>
<svg xmlns="http://www.w3.org/2000/svg" viewBox="0 0 40 40">
  <defs>
    <style>
      .cls-1 {
        fill: #fff;
        stroke: #747f8a;
      }

      .cls-2 {
        fill: #d32;
        fill-rule: evenodd;
        stroke: #fff;
        stroke-linecap: round;
        stroke-linejoin: round;
        stroke-width: .5px;
      }
    </style>
  </defs>
  <g id="Circles">
    <circle class="cls-1" cx="20" cy="20" r="19.5"/>
  </g>
  <g id="Layer_1" data-name="Layer 1">
    <g id="Layer_1-2" data-name="Layer_1">
      <path class="cls-2" d="m14.34,26.46h0c-.29-.71-.43-1.48-.43-2.27,0-1.11.3-2.19.86-3.13h-5.03v6.24h5.03c-.17-.27-.3-.56-.43-.84Z"/>
      <path class="cls-2" d="m30.26,21.06h-5.03c.56.94.86,2.02.86,3.13s-.3,2.17-.86,3.11h5.03v-6.24Z"/>
      <path class="cls-2" d="m19.99,29.84c-1.51,0-2.94-.59-4-1.65s-1.65-2.48-1.65-4,.54-2.84,1.49-3.86c.24.13.49.21.78.21h6.72c.3,0,.59-.08.83-.22.95,1.03,1.51,2.41,1.51,3.87s-.59,2.94-1.65,4-2.49,1.65-4.02,1.65Z"/>
      <polygon class="cls-2" points="17.61 13.55 17.61 17.36 22.37 17.36 22.37 13.55 17.61 13.55"/>
      <path class="cls-2" d="m7.88,28.73c-.79,0-1.43-.64-1.43-1.43v-6.24c0-.79.64-1.43,1.43-1.43s1.43.67,1.43,1.43v6.24c0,.76-.67,1.43-1.43,1.43Z"/>
      <path class="cls-2" d="m32.12,28.73c-.76,0-1.43-.67-1.43-1.43v-6.24c0-.76.67-1.43,1.43-1.43s1.43.67,1.43,1.43v6.24c0,.76-.67,1.43-1.43,1.43Z"/>
      <g id="_531525200" data-name=" 531525200">
        <path class="cls-2" d="m25.55,13.13h-11.11c-.81,0-1.48-.67-1.48-1.48s.67-1.49,1.48-1.49h11.11c.83,0,1.49.67,1.49,1.49s-.67,1.48-1.49,1.48Z"/>
        <path class="cls-2" d="m23.33,20.11h-6.72c-.64,0-1.16-.54-1.16-1.16s.52-1.17,1.16-1.17h6.72c.68,0,1.22.52,1.22,1.17s-.54,1.16-1.22,1.16Z"/>
      </g>
    </g>
  </g>
</svg>