<?xml version="1.0" encoding="UTF-8"?>
<svg xmlns="http://www.w3.org/2000/svg" viewBox="0 0 40 40">
  <defs>
    <style>
      .cls-1 {
        fill: #fff;
        stroke: #747f8a;
      }

      .cls-2 {
        fill: #d32;
        stroke-width: 0px;
      }
    </style>
  </defs>
  <g id="Circles">
    <circle class="cls-1" cx="20" cy="20" r="19.5"/>
  </g>
  <g id="Layer_1" data-name="Layer 1">
    <path class="cls-2" d="m15.17,14.46l-1.04,2.98h11.75l-1.04-2.98c-.18-.51-.66-.86-1.21-.86h-7.25c-.54,0-1.03.34-1.21.86Zm-3.82,3.18l1.41-4.02c.54-1.54,1.99-2.57,3.62-2.57h7.25c1.63,0,3.08,1.03,3.62,2.57l1.41,4.02c.93.38,1.58,1.3,1.58,2.37v7.68c0,.71-.57,1.28-1.28,1.28h-1.28c-.71,0-1.28-.57-1.28-1.28v-1.92h-12.8v1.92c0,.71-.57,1.28-1.28,1.28h-1.28c-.71,0-1.28-.57-1.28-1.28v-7.68c0-1.07.66-1.98,1.58-2.37Zm3.54,3.65c0-.71-.57-1.28-1.28-1.28s-1.28.57-1.28,1.28.57,1.28,1.28,1.28,1.28-.57,1.28-1.28Zm11.52,1.28c.71,0,1.28-.57,1.28-1.28s-.57-1.28-1.28-1.28-1.28.57-1.28,1.28.57,1.28,1.28,1.28Z"/>
  </g>
</svg>