<?xml version="1.0" encoding="UTF-8"?>
<svg xmlns="http://www.w3.org/2000/svg" viewBox="0 0 40 40">
  <defs>
    <style>
      .cls-1 {
        fill: #fff;
        stroke: #747f8a;
      }

      .cls-2 {
        fill: #d32;
        stroke-width: 0px;
      }
    </style>
  </defs>
  <g id="Circles">
    <circle class="cls-1" cx="20" cy="20" r="19.5"/>
  </g>
  <g id="Layer_1" data-name="Layer 1">
    <path class="cls-2" d="m20,7.76c.71,0,1.28.57,1.28,1.28v.71c5.27.55,9.51,4.45,10.16,9.45.08.62-.69.98-1.11.51-.56-.62-1.65-1.06-2.64-1.06-1.55,0-2.84,1.1-3.14,2.56-.07.35-.35.64-.7.64s-.63-.29-.7-.64c-.3-1.46-1.59-2.56-3.14-2.56s-2.84,1.1-3.14,2.56c-.07.35-.35.64-.7.64s-.63-.29-.7-.64c-.3-1.46-1.59-2.56-3.14-2.56-.99,0-2.08.44-2.64,1.07-.42.47-1.19.11-1.11-.51.65-5,4.88-8.9,10.16-9.45v-.71c0-.71.57-1.28,1.28-1.28Zm0,14.16c.49,0,.94.18,1.28.49v4.57c0,1.8-1.46,3.26-3.26,3.26-1.23,0-2.36-.7-2.91-1.8l-.09-.19c-.32-.63-.06-1.4.57-1.72s1.4-.06,1.72.57l.09.19c.12.24.36.38.62.38.38,0,.7-.31.7-.7v-4.57c.34-.3.79-.49,1.28-.49h0Z"/>
  </g>
</svg>