<?xml version="1.0" encoding="UTF-8"?>
<svg xmlns="http://www.w3.org/2000/svg" viewBox="0 0 40 40">
  <defs>
    <style>
      .cls-1 {
        fill: #fff;
        stroke: #747f8a;
      }

      .cls-2 {
        fill: #d32;
        stroke-width: 0px;
      }
    </style>
  </defs>
  <g id="Circles">
    <circle class="cls-1" cx="19.5" cy="20" r="19.5"/>
  </g>
  <g id="Layer_1" data-name="Layer 1">
    <path class="cls-2" d="m9.75,18.09v4.3c0,5.55,4.5,10.04,10.04,10.04s10.04-4.5,10.04-10.04v-4.3h-5.74v4.3c0,2.38-1.93,4.3-4.3,4.3s-4.3-1.93-4.3-4.3v-4.3h-5.74Zm0-1.43h5.74v-2.87c0-.79-.64-1.43-1.43-1.43h-2.87c-.79,0-1.43.64-1.43,1.43v2.87Zm14.35,0h5.74v-2.87c0-.79-.64-1.43-1.43-1.43h-2.87c-.79,0-1.43.64-1.43,1.43v2.87Z"/>
    <path class="cls-2" d="m22.22,7.38c.13-.26.04-.57-.22-.75s-.53-.13-.75.04l-4.93,4.31c-.18.18-.26.44-.18.66.09.22.31.4.57.4h2.16l-1.45,3.43c-.13.26-.04.57.22.75.22.18.53.13.75-.04l4.88-4.31c.18-.18.26-.44.18-.66s-.31-.4-.57-.4h-2.16l1.5-3.43Z"/>
  </g>
</svg>