<?xml version="1.0" encoding="UTF-8"?>
<svg xmlns="http://www.w3.org/2000/svg" viewBox="0 0 40 40">
  <defs>
    <style>
      .cls-1 {
        fill: #fff;
        stroke: #747f8a;
      }

      .cls-2 {
        fill: #d32;
        stroke-width: 0px;
      }
    </style>
  </defs>
  <g id="Circles">
    <circle class="cls-1" cx="20" cy="20" r="19.5"/>
  </g>
  <g id="Layer_1" data-name="Layer 1">
    <g>
      <path class="cls-2" d="m14.21,19.84v2.32h11.59v-2.32c0-2.16,1.48-3.95,3.48-4.47v-1.32c0-1.91-1.56-3.48-3.48-3.48h-11.59c-1.91,0-3.48,1.56-3.48,3.48v1.32c1.99.52,3.48,2.32,3.48,4.47"/>
      <path class="cls-2" d="m30.43,17.52c-1.27,0-2.32,1.04-2.32,2.32v4.64H11.89v-4.64c0-1.27-1.04-2.32-2.32-2.32s-2.32,1.04-2.32,2.32v5.79c0,1.91,1.56,3.48,3.48,3.48v1.16c0,.64.52,1.16,1.16,1.16s1.16-.52,1.16-1.16v-1.16h13.91v1.16c0,.64.52,1.16,1.16,1.16s1.16-.52,1.16-1.16v-1.16c1.91,0,3.48-1.56,3.48-3.48v-5.79c0-1.27-1.04-2.32-2.32-2.32"/>
    </g>
  </g>
</svg>