<?xml version="1.0" encoding="UTF-8"?>
<svg xmlns="http://www.w3.org/2000/svg" viewBox="0 0 40 40">
  <defs>
    <style>
      .cls-1 {
        fill: #fff;
        stroke: #747f8a;
      }

      .cls-2 {
        fill: #d32;
        stroke-width: 0px;
      }
    </style>
  </defs>
  <g id="Circles">
    <circle class="cls-1" cx="20" cy="20" r="19.5"/>
  </g>
  <g id="Layer_1" data-name="Layer 1">
    <path class="cls-2" d="m14.2,26.14c-.39.64-.6,1.37-.6,2.12-.4.14-.83.22-1.28.22-2.12,0-3.84-1.72-3.84-3.84v-11.52c-.71,0-1.28-.57-1.28-1.28s.57-1.28,1.28-1.28h7.68c.71,0,1.28.57,1.28,1.28s-.57,1.28-1.28,1.28v9.84l-1.96,3.18h0Zm-3.16-13.02v3.84h2.56v-3.84h-2.56Zm10.24-2.56h6.4c.71,0,1.28.57,1.28,1.28s-.57,1.28-1.28,1.28v6.04l4.71,7.65c.27.44.41.94.41,1.46,0,1.53-1.24,2.78-2.78,2.78h-12.37c-1.53,0-2.78-1.24-2.78-2.78,0-.51.14-1.02.41-1.46l4.71-7.65v-6.04c-.71,0-1.28-.57-1.28-1.28s.57-1.28,1.28-1.28h1.28Zm1.28,2.56v6.4c0,.24-.06.47-.19.67l-1.95,3.17h6.84l-1.95-3.17c-.12-.2-.19-.43-.19-.67v-6.4h-2.56Z"/>
  </g>
</svg>