<?xml version="1.0" encoding="UTF-8"?>
<svg xmlns="http://www.w3.org/2000/svg" viewBox="0 0 40 40">
  <defs>
    <style>
      .cls-1 {
        fill: #fff;
        stroke: #747f8a;
      }

      .cls-2 {
        fill: #d32;
        stroke-width: 0px;
      }
    </style>
  </defs>
  <g id="Circles">
    <circle class="cls-1" cx="20" cy="20" r="19.5"/>
  </g>
  <g id="Layer_1" data-name="Layer 1">
    <path class="cls-2" d="m11.04,12.32c0-1.41,1.15-2.56,2.56-2.56h4.25c1.05,0,1.99.64,2.38,1.61l1.92,4.79h4.25v-1.35c0-.99.23-1.97.68-2.86l.1-.2c.32-.63,1.08-.89,1.72-.57s.89,1.08.57,1.72l-.1.2c-.27.53-.4,1.12-.4,1.72v1.35h2.24c.88,0,1.6.72,1.6,1.6v1.82c0,.66-.34,1.28-.9,1.63l-1.73,1.08c-.57-.24-1.19-.37-1.84-.37-1.57,0-2.96.76-3.84,1.92h-3.2c0,.71-.57,1.28-1.28,1.28h-.33c-.07.19-.15.38-.23.56l.23.23c.5.5.5,1.31,0,1.81l-.9.9c-.5.5-1.31.5-1.81,0l-.23-.23c-.18.09-.37.16-.56.23v.33c0,.71-.57,1.28-1.28,1.28h-1.28c-.71,0-1.28-.57-1.28-1.28v-.33c-.19-.07-.38-.15-.56-.23l-.23.23c-.5.5-1.31.5-1.81,0l-.9-.9c-.5-.5-.5-1.31,0-1.81l.23-.23c-.09-.18-.16-.37-.23-.56h-.33c-.71,0-1.28-.57-1.28-1.28v-1.28c0-.71.57-1.28,1.28-1.28h.33c.07-.19.15-.38.23-.56l-.23-.23c-.5-.5-.5-1.31,0-1.81l.9-.9c.36-.36.88-.46,1.32-.3v-5.14h0Zm6.81,0h-4.25v3.84h5.79l-1.54-3.84Zm-3.61,7.68c-1.77,0-3.2,1.43-3.2,3.2s1.43,3.2,3.2,3.2,3.2-1.43,3.2-3.2-1.43-3.2-3.2-3.2Zm14.08,7.68c.53,0,.96-.43.96-.96s-.43-.96-.96-.96-.96.43-.96.96.43.96.96.96Zm0,2.56c-1.94,0-3.52-1.58-3.52-3.52,0-1.19.59-2.24,1.5-2.88.57-.4,1.27-.64,2.02-.64.11,0,.21,0,.32.01,1.8.16,3.2,1.67,3.2,3.51,0,1.94-1.58,3.52-3.52,3.52Z"/>
  </g>
</svg>