<?xml version="1.0" encoding="UTF-8"?>
<svg xmlns="http://www.w3.org/2000/svg" viewBox="0 0 40 40">
  <defs>
    <style>
      .cls-1 {
        fill: #fff;
        stroke: #747f8a;
      }

      .cls-2 {
        fill: #d32;
        stroke-width: 0px;
      }
    </style>
  </defs>
  <g id="Circles">
    <circle class="cls-1" cx="20" cy="20" r="19.5"/>
  </g>
  <g id="Layer_1" data-name="Layer 1">
    <path class="cls-2" d="m20,9.4c5.86,0,10.6,4.75,10.6,10.6s-4.75,10.6-10.6,10.6-10.6-4.75-10.6-10.6,4.75-10.6,10.6-10.6Zm0,23.4c7.07,0,12.8-5.73,12.8-12.8s-5.73-12.8-12.8-12.8-12.8,5.73-12.8,12.8,5.73,12.8,12.8,12.8Zm-2.8-12.8c0-1.03.57-1.94,1.4-2.42l-1.8-3.12c-.44-.77-1.43-1.04-2.1-.45-1.28,1.13-2.2,2.67-2.55,4.4-.17.86.56,1.59,1.45,1.59h3.6Zm1.4,2.42l-1.8,3.12c-.44.76-.18,1.76.66,2.04.8.27,1.66.41,2.54.41s1.74-.14,2.54-.41c.84-.28,1.09-1.28.66-2.04l-1.8-3.12c-.41.24-.89.38-1.4.38s-.99-.14-1.4-.38Zm4.2-2.42h3.6c.89,0,1.61-.72,1.44-1.59-.35-1.74-1.26-3.28-2.54-4.4-.66-.58-1.66-.32-2.1.45l-1.8,3.12c.84.48,1.4,1.39,1.4,2.42h0Zm-2.8,1.6c.88,0,1.6-.72,1.6-1.6s-.72-1.6-1.6-1.6-1.6.72-1.6,1.6.72,1.6,1.6,1.6Z"/>
  </g>
</svg>