<?xml version="1.0" encoding="UTF-8"?>
<svg xmlns="http://www.w3.org/2000/svg" viewBox="0 0 40 40">
  <defs>
    <style>
      .cls-1 {
        fill: #fff;
        stroke: #747f8a;
      }

      .cls-2 {
        fill: #d32;
        stroke-width: 0px;
      }
    </style>
  </defs>
  <g id="Circles">
    <circle class="cls-1" cx="20" cy="20" r="19.5"/>
  </g>
  <g id="Layer_1" data-name="Layer 1">
    <path class="cls-2" d="m18.18,27.83c.43-.53,1.09-.87,1.82-.87s1.38.34,1.81.87c.45-.1.88-.24,1.3-.42l-1.65-3.69c-.45.17-.95.27-1.46.27s-1.04-.1-1.51-.29l-1.66,3.7c.44.19.88.34,1.35.43m-6.13-10.15c-.19.68-.29,1.4-.29,2.15,0,.87.14,1.71.38,2.49.73.06,1.42.46,1.81,1.15.38.66.41,1.43.13,2.08.31.31.65.61,1.01.88l1.76-3.93c-.55-.67-.87-1.53-.87-2.47,0-2.19,1.8-3.96,4.01-3.96s4.01,1.78,4.01,3.96c0,.95-.34,1.82-.9,2.51l1.74,3.89c.37-.28.72-.58,1.04-.92-.26-.64-.23-1.39.14-2.03.38-.66,1.04-1.07,1.76-1.15.26-.79.39-1.64.39-2.51,0-.74-.1-1.47-.29-2.16-.74-.05-1.46-.45-1.86-1.16-.42-.72-.41-1.58-.03-2.26-1.06-1.14-2.44-1.98-3.99-2.38-.41.72-1.16,1.18-2.02,1.18s-1.61-.48-2.02-1.17c-1.55.39-2.94,1.22-3.99,2.36.38.7.41,1.57-.02,2.3-.41.72-1.15,1.13-1.91,1.16m-1.51-.49c-.9-.7-1.18-1.97-.59-2.99s1.83-1.43,2.89-.99c1.29-1.36,2.97-2.36,4.85-2.81.16-1.14,1.14-2.01,2.31-2.01s2.15.87,2.3,2.01c1.89.45,3.56,1.44,4.85,2.81,1.06-.44,2.31-.03,2.89.99.59,1.02.31,2.3-.59,2.99.27.89.41,1.83.41,2.81s-.14,1.91-.41,2.81c.9.7,1.18,1.97.59,2.99s-1.83,1.43-2.89.99c-.46.5-.99.94-1.55,1.33l1.55,3.48h-2.16l-1.13-2.52c-.5.21-1.02.38-1.55.51-.16,1.14-1.14,2.01-2.31,2.01s-2.15-.87-2.3-2.01c-.56-.14-1.09-.31-1.6-.53l-1.14,2.54h-2.18l1.58-3.52c-.54-.38-1.05-.82-1.51-1.3-1.07.44-2.31.03-2.9-.99s-.31-2.3.59-2.99c-.27-.89-.41-1.83-.41-2.81s.14-1.91.41-2.81"/>
  </g>
</svg>