<?xml version="1.0" encoding="UTF-8"?>
<svg xmlns="http://www.w3.org/2000/svg" viewBox="0 0 40 40">
  <defs>
    <style>
      .cls-1 {
        fill: #fff;
        stroke: #747f8a;
      }

      .cls-2 {
        fill: #d32;
        stroke-width: 0px;
      }
    </style>
  </defs>
  <g id="Circles">
    <circle class="cls-1" cx="19.5" cy="20" r="19.5"/>
  </g>
  <g id="Layer_1" data-name="Layer 1">
    <path class="cls-2" d="m32.75,10.05c.34.28.54.7.54,1.15v4.46c0,.45-.2.87-.54,1.15s-.8.39-1.24.31l-7.43-1.49c-.57-.11-1.01-.54-1.15-1.08h-3.02v1.62c1.76.84,2.97,2.62,2.97,4.7v6.69h-10.41v-6.69c0-2.08,1.22-3.87,2.97-4.7v-1.34c-1.68.52-3.07,1.71-3.82,3.28-.27.55-.94.79-1.49.52s-.79-.94-.52-1.49c1.12-2.31,3.26-4.04,5.83-4.6v-1.32c0-.82.66-1.49,1.49-1.49h1.49c.82,0,1.49.66,1.49,1.49v1.11h3.02c.14-.54.58-.97,1.15-1.09l7.43-1.49c.44-.09.89.03,1.24.31h0Zm-9.86,18.99v1.49c0,1.64-1.33,2.97-2.97,2.97h-4.46c-1.64,0-2.97-1.33-2.97-2.97v-1.49h10.41Zm-5.2-14.87c.41,0,.74-.33.74-.74s-.33-.74-.74-.74-.74.33-.74.74.33.74.74.74Z"/>
  </g>
</svg>