<svg width="40" height="40" viewBox="0 0 40 40" fill="none" xmlns="http://www.w3.org/2000/svg">
<circle cx="20" cy="20" r="19.5" stroke="#747F8A"/>
<path d="M28.4025 10.2733C28.0686 9.92838 27.5223 9.90727 27.163 10.2252C27.163 10.2252 17.9843 18.3426 17.2341 19.0062C16.3864 18.6837 11.8236 16.949 11.8236 16.949C11.4065 16.7907 10.9358 16.9621 10.7196 17.353C10.5031 17.7435 10.6065 18.2337 10.9624 18.5034L16.6333 22.8041C16.9985 23.081 17.5131 23.0384 17.8281 22.7057L28.4097 11.514C28.7394 11.1653 28.7365 10.6186 28.4025 10.2733Z" fill="#DD3322"/>
<path d="M32.5208 10.6701C32.1578 10.3746 31.6279 10.4079 31.305 10.7469C31.305 10.7469 18.3162 24.3669 17.2861 25.4468C16.2467 24.648 11.4446 20.9562 11.4446 20.9562C11.1022 20.6927 10.6209 20.7109 10.2988 20.9988C9.97711 21.2867 9.90618 21.7634 10.1299 22.1328L16.6448 32.8887C16.8027 33.1492 17.0813 33.3117 17.3857 33.3206C17.6901 33.3295 17.978 33.1838 18.1511 32.9335L32.6931 11.8762C32.959 11.4912 32.8839 10.9656 32.5208 10.6701Z" fill="#223344"/>
</svg>
