<svg width="100" height="100" viewBox="0 0 100 100" fill="none" xmlns="http://www.w3.org/2000/svg">
<circle cx="50" cy="50" r="50" fill="white"/>
<g clip-path="url(#clip0_208_13)">
<path d="M41 17.75C44.8625 17.75 48 20.8875 48 24.75V74.75C48 78.6125 44.8625 81.75 41 81.75C37.3875 81.75 34.4125 79.0125 34.0375 75.4875C33.3875 75.6625 32.7 75.75 32 75.75C27.5875 75.75 24 72.1625 24 67.75C24 66.825 24.1625 65.925 24.45 65.1C20.675 63.675 18 60.025 18 55.75C18 51.7625 20.3375 48.3125 23.725 46.7125C22.6375 45.35 22 43.625 22 41.75C22 37.9125 24.7 34.7125 28.3 33.925C28.1 33.2375 28 32.5 28 31.75C28 28.0125 30.575 24.8625 34.0375 23.9875C34.4125 20.4875 37.3875 17.75 41 17.75ZM59 17.75C62.6125 17.75 65.575 20.4875 65.9625 23.9875C69.4375 24.8625 72 28 72 31.75C72 32.5 71.9 33.2375 71.7 33.925C75.3 34.7 78 37.9125 78 41.75C78 43.625 77.3625 45.35 76.275 46.7125C79.6625 48.3125 82 51.7625 82 55.75C82 60.025 79.325 63.675 75.55 65.1C75.8375 65.925 76 66.825 76 67.75C76 72.1625 72.4125 75.75 68 75.75C67.3 75.75 66.6125 75.6625 65.9625 75.4875C65.5875 79.0125 62.6125 81.75 59 81.75C55.1375 81.75 52 78.6125 52 74.75V24.75C52 20.8875 55.1375 17.75 59 17.75Z" fill="#DD3322"/>
</g>
<defs>
<clipPath id="clip0_208_13">
<rect width="64" height="64" fill="white" transform="translate(18 17.75)"/>
</clipPath>
</defs>
</svg>
