<svg width="100" height="100" viewBox="0 0 100 100" fill="none" xmlns="http://www.w3.org/2000/svg">
<circle cx="50" cy="50" r="50" fill="white"/>
<g clip-path="url(#clip0_208_1725)">
<path d="M36.4 29.05H50.8C51.24 29.05 51.6 29.41 51.6 29.85V33.85H35.6V29.85C35.6 29.41 35.96 29.05 36.4 29.05ZM30.8 29.85V33.85H24.4C20.87 33.85 18 36.72 18 40.25V49.85H37.2H53.2H54.02C57.25 45.94 62.13 43.45 67.6 43.45C68.14 43.45 68.67 43.47 69.2 43.52V40.25C69.2 36.72 66.33 33.85 62.8 33.85H56.4V29.85C56.4 26.76 53.89 24.25 50.8 24.25H36.4C33.31 24.25 30.8 26.76 30.8 29.85ZM50 59.45H40.4C38.63 59.45 37.2 58.02 37.2 56.25V53.05H18V65.85C18 69.38 20.87 72.25 24.4 72.25H54.02C51.51 69.21 50 65.3 50 61.05C50 60.51 50.02 59.98 50.07 59.45H50ZM82 61.05C82 57.2309 80.4829 53.5682 77.7823 50.8677C75.0818 48.1671 71.4191 46.65 67.6 46.65C63.7809 46.65 60.1182 48.1671 57.4177 50.8677C54.7171 53.5682 53.2 57.2309 53.2 61.05C53.2 64.8691 54.7171 68.5318 57.4177 71.2323C60.1182 73.9329 63.7809 75.45 67.6 75.45C71.4191 75.45 75.0818 73.9329 77.7823 71.2323C80.4829 68.5318 82 64.8691 82 61.05ZM67.6 53.05C68.48 53.05 69.2 53.77 69.2 54.65V59.45H72.4C73.28 59.45 74 60.17 74 61.05C74 61.93 73.28 62.65 72.4 62.65H67.6C66.72 62.65 66 61.93 66 61.05V54.65C66 53.77 66.72 53.05 67.6 53.05Z" fill="#DD3322"/>
</g>
<defs>
<clipPath id="clip0_208_1725">
<rect width="64" height="51.2" fill="white" transform="translate(18 24.25)"/>
</clipPath>
</defs>
</svg>
