<svg width="100" height="100" viewBox="0 0 100 100" fill="none" xmlns="http://www.w3.org/2000/svg">
<circle cx="50" cy="50" r="50" fill="white"/>
<g clip-path="url(#clip0_208_1743)">
<path d="M37.5 17.5C39.7125 17.5 41.5 19.2875 41.5 21.5V25.5H57.5V21.5C57.5 19.2875 59.2875 17.5 61.5 17.5C63.7125 17.5 65.5 19.2875 65.5 21.5V25.5H71.5C74.8125 25.5 77.5 28.1875 77.5 31.5V37.5H21.5V31.5C21.5 28.1875 24.1875 25.5 27.5 25.5H33.5V21.5C33.5 19.2875 35.2875 17.5 37.5 17.5ZM21.5 41.5H77.5V75.5C77.5 78.8125 74.8125 81.5 71.5 81.5H27.5C24.1875 81.5 21.5 78.8125 21.5 75.5V41.5ZM29.5 51.5V55.5C29.5 56.6 30.4 57.5 31.5 57.5H35.5C36.6 57.5 37.5 56.6 37.5 55.5V51.5C37.5 50.4 36.6 49.5 35.5 49.5H31.5C30.4 49.5 29.5 50.4 29.5 51.5ZM45.5 51.5V55.5C45.5 56.6 46.4 57.5 47.5 57.5H51.5C52.6 57.5 53.5 56.6 53.5 55.5V51.5C53.5 50.4 52.6 49.5 51.5 49.5H47.5C46.4 49.5 45.5 50.4 45.5 51.5ZM63.5 49.5C62.4 49.5 61.5 50.4 61.5 51.5V55.5C61.5 56.6 62.4 57.5 63.5 57.5H67.5C68.6 57.5 69.5 56.6 69.5 55.5V51.5C69.5 50.4 68.6 49.5 67.5 49.5H63.5ZM29.5 67.5V71.5C29.5 72.6 30.4 73.5 31.5 73.5H35.5C36.6 73.5 37.5 72.6 37.5 71.5V67.5C37.5 66.4 36.6 65.5 35.5 65.5H31.5C30.4 65.5 29.5 66.4 29.5 67.5ZM47.5 65.5C46.4 65.5 45.5 66.4 45.5 67.5V71.5C45.5 72.6 46.4 73.5 47.5 73.5H51.5C52.6 73.5 53.5 72.6 53.5 71.5V67.5C53.5 66.4 52.6 65.5 51.5 65.5H47.5ZM61.5 67.5V71.5C61.5 72.6 62.4 73.5 63.5 73.5H67.5C68.6 73.5 69.5 72.6 69.5 71.5V67.5C69.5 66.4 68.6 65.5 67.5 65.5H63.5C62.4 65.5 61.5 66.4 61.5 67.5Z" fill="#DD3322"/>
</g>
<defs>
<clipPath id="clip0_208_1743">
<rect width="56" height="64" fill="white" transform="translate(21.5 17.5)"/>
</clipPath>
</defs>
</svg>
