<svg width="100" height="100" viewBox="0 0 100 100" fill="none" xmlns="http://www.w3.org/2000/svg">
<circle cx="50" cy="50" r="50" fill="white"/>
<g clip-path="url(#clip0_208_1714)">
<path d="M41.3125 26.1L45.6625 33.5H45.5H36.5C33.7375 33.5 31.5 31.2625 31.5 28.5C31.5 25.7375 33.7375 23.5 36.5 23.5H36.775C38.6375 23.5 40.375 24.4875 41.3125 26.1ZM25.5 28.5C25.5 30.3 25.9375 32 26.7 33.5H21.5C19.2875 33.5 17.5 35.2875 17.5 37.5V45.5C17.5 47.7125 19.2875 49.5 21.5 49.5H77.5C79.7125 49.5 81.5 47.7125 81.5 45.5V37.5C81.5 35.2875 79.7125 33.5 77.5 33.5H72.3C73.0625 32 73.5 30.3 73.5 28.5C73.5 22.425 68.575 17.5 62.5 17.5H62.225C58.2375 17.5 54.5375 19.6125 52.5125 23.05L49.5 28.1875L46.4875 23.0625C44.4625 19.6125 40.7625 17.5 36.775 17.5H36.5C30.425 17.5 25.5 22.425 25.5 28.5ZM67.5 28.5C67.5 31.2625 65.2625 33.5 62.5 33.5H53.5H53.3375L57.6875 26.1C58.6375 24.4875 60.3625 23.5 62.225 23.5H62.5C65.2625 23.5 67.5 25.7375 67.5 28.5ZM21.5 53.5V75.5C21.5 78.8125 24.1875 81.5 27.5 81.5H45.5V53.5H21.5ZM53.5 81.5H71.5C74.8125 81.5 77.5 78.8125 77.5 75.5V53.5H53.5V81.5Z" fill="#DD3322"/>
</g>
<defs>
<clipPath id="clip0_208_1714">
<rect width="64" height="64" fill="white" transform="translate(17.5 17.5)"/>
</clipPath>
</defs>
</svg>
