<svg width="100" height="100" viewBox="0 0 100 100" fill="none" xmlns="http://www.w3.org/2000/svg">
<circle cx="50" cy="50" r="50" fill="white"/>
<g clip-path="url(#clip0_208_1753)">
<path d="M60 61.75C72.15 61.75 82 51.9 82 39.75C82 27.6 72.15 17.75 60 17.75C47.85 17.75 38 27.6 38 39.75C38 42.0875 38.3625 44.35 39.0375 46.4625L18.875 66.625C18.3125 67.1875 18 67.95 18 68.75V78.75C18 80.4125 19.3375 81.75 21 81.75H31C32.6625 81.75 34 80.4125 34 78.75V73.75H39C40.6625 73.75 42 72.4125 42 70.75V65.75H47C47.8 65.75 48.5625 65.4375 49.125 64.875L53.2875 60.7125C55.4 61.3875 57.6625 61.75 60 61.75ZM65 29.75C66.3261 29.75 67.5979 30.2768 68.5355 31.2145C69.4732 32.1521 70 33.4239 70 34.75C70 36.0761 69.4732 37.3479 68.5355 38.2855C67.5979 39.2232 66.3261 39.75 65 39.75C63.6739 39.75 62.4021 39.2232 61.4645 38.2855C60.5268 37.3479 60 36.0761 60 34.75C60 33.4239 60.5268 32.1521 61.4645 31.2145C62.4021 30.2768 63.6739 29.75 65 29.75Z" fill="#DD3322"/>
</g>
<defs>
<clipPath id="clip0_208_1753">
<rect width="64" height="64" fill="white" transform="translate(18 17.75)"/>
</clipPath>
</defs>
</svg>
