<svg width="100" height="100" viewBox="0 0 100 100" fill="none" xmlns="http://www.w3.org/2000/svg">
<circle cx="50" cy="50" r="50" fill="white"/>
<g clip-path="url(#clip0_208_1210)">
<path d="M24.4002 30.775C24.4002 29.0776 25.0744 27.4497 26.2747 26.2495C27.4749 25.0493 29.1028 24.375 30.8002 24.375C32.4975 24.375 34.1254 25.0493 35.3256 26.2495C36.5259 27.4497 37.2002 29.0776 37.2002 30.775C37.2002 32.4724 36.5259 34.1003 35.3256 35.3005C34.1254 36.5007 32.4975 37.175 30.8002 37.175C29.1028 37.175 27.4749 36.5007 26.2747 35.3005C25.0744 34.1003 24.4002 32.4724 24.4002 30.775ZM20.5902 47.715C20.9302 43.565 24.4002 40.375 28.5602 40.375H33.0402C35.7402 40.375 38.1402 41.715 39.5902 43.785C39.3202 43.975 39.0702 44.185 38.8402 44.415L32.4402 50.815C30.2502 53.005 30.2502 56.545 32.4402 58.735L37.2002 63.495V70.775C37.2002 73.425 35.0502 75.575 32.4002 75.575H29.2002C26.5502 75.575 24.4002 73.425 24.4002 70.775V59.205C21.7502 58.255 19.9302 55.625 20.1802 52.645L20.5902 47.715ZM62.8002 30.775C62.8002 29.0776 63.4744 27.4497 64.6747 26.2495C65.8749 25.0493 67.5028 24.375 69.2002 24.375C70.8975 24.375 72.5254 25.0493 73.7256 26.2495C74.9259 27.4497 75.6002 29.0776 75.6002 30.775C75.6002 32.4724 74.9259 34.1003 73.7256 35.3005C72.5254 36.5007 70.8975 37.175 69.2002 37.175C67.5028 37.175 65.8749 36.5007 64.6747 35.3005C63.4744 34.1003 62.8002 32.4724 62.8002 30.775ZM61.1602 44.415C60.9302 44.185 60.6702 43.975 60.4102 43.785C61.8602 41.715 64.2702 40.375 66.9602 40.375H71.4402C75.6002 40.375 79.0702 43.565 79.4102 47.715L79.8202 52.645C80.0702 55.625 78.2502 58.255 75.6002 59.205V70.775C75.6002 73.425 73.4502 75.575 70.8002 75.575H67.6002C64.9502 75.575 62.8002 73.425 62.8002 70.775V63.495L67.5602 58.735C69.7502 56.545 69.7502 53.005 67.5602 50.815L61.1602 44.415ZM45.2002 48.375V51.575H54.8002V48.375C54.8002 47.405 55.3802 46.525 56.2802 46.155C57.1802 45.785 58.2102 45.985 58.9002 46.675L65.3002 53.075C66.2402 54.015 66.2402 55.535 65.3002 56.465L58.9002 62.865C58.2102 63.555 57.1802 63.755 56.2802 63.385C55.3802 63.015 54.8002 62.135 54.8002 61.165V57.965H45.2002V61.165C45.2002 62.135 44.6202 63.015 43.7202 63.385C42.8202 63.755 41.7902 63.555 41.1002 62.865L34.7002 56.465C33.7602 55.525 33.7602 54.005 34.7002 53.075L41.1002 46.675C41.7902 45.985 42.8202 45.785 43.7202 46.155C44.6202 46.525 45.2002 47.405 45.2002 48.375Z" fill="#DD3322"/>
</g>
<defs>
<clipPath id="clip0_208_1210">
<rect width="64" height="51.2" fill="white" transform="translate(18 24.375)"/>
</clipPath>
</defs>
</svg>
