<svg width="100" height="100" viewBox="0 0 100 100" fill="none" xmlns="http://www.w3.org/2000/svg">
<circle cx="50" cy="50" r="50" fill="white"/>
<g clip-path="url(#clip0_208_1830)">
<path d="M50.0001 17.75C50.5751 17.75 51.1501 17.875 51.6751 18.1125L75.2126 28.1C77.9626 29.2625 80.0126 31.975 80.0001 35.25C79.9376 47.65 74.8376 70.3375 53.3001 80.65C51.2126 81.65 48.7876 81.65 46.7001 80.65C25.1626 70.3375 20.0626 47.65 20.0001 35.25C19.9876 31.975 22.0376 29.2625 24.7876 28.1L48.3376 18.1125C48.8501 17.875 49.4251 17.75 50.0001 17.75ZM50.0001 26.1V73.3625C67.2501 65 71.8876 46.5125 72.0001 35.425L50.0001 26.1Z" fill="#DD3322"/>
</g>
<defs>
<clipPath id="clip0_208_1830">
<rect width="64" height="64" fill="white" transform="translate(18 17.75)"/>
</clipPath>
</defs>
</svg>
