<svg width="100" height="100" viewBox="0 0 100 100" fill="none" xmlns="http://www.w3.org/2000/svg">
<circle cx="50" cy="50" r="50" fill="white"/>
<g clip-path="url(#clip0_208_1550)">
<path d="M43.5 17.5C41.2875 17.5 39.5 19.2875 39.5 21.5C39.5 23.7125 41.2875 25.5 43.5 25.5H45.5V29.8C33.0375 31.725 23.5 42.5 23.5 55.5C23.5 69.8625 35.1375 81.5 49.5 81.5C63.8625 81.5 75.5 69.8625 75.5 55.5C75.5 50.275 73.9625 45.4125 71.3125 41.35L74.325 38.3375C75.8875 36.775 75.8875 34.2375 74.325 32.675C72.7625 31.1125 70.225 31.1125 68.6625 32.675L65.9625 35.375C62.45 32.5 58.1875 30.525 53.5 29.8V25.5H55.5C57.7125 25.5 59.5 23.7125 59.5 21.5C59.5 19.2875 57.7125 17.5 55.5 17.5H49.5H43.5ZM52.5 41.5V57.5C52.5 59.1625 51.1625 60.5 49.5 60.5C47.8375 60.5 46.5 59.1625 46.5 57.5V41.5C46.5 39.8375 47.8375 38.5 49.5 38.5C51.1625 38.5 52.5 39.8375 52.5 41.5Z" fill="#DD3322"/>
</g>
<defs>
<clipPath id="clip0_208_1550">
<rect width="56" height="64" fill="white" transform="translate(21.5 17.5)"/>
</clipPath>
</defs>
</svg>
