<svg width="69" height="58" viewBox="0 0 69 58" fill="none" xmlns="http://www.w3.org/2000/svg">
<path opacity="0.25" d="M56.0625 21.8237C54.3636 23.2655 52.2074 23.9864 49.5938 23.9864C46.7188 23.9864 44.1051 23.0034 41.7528 21.0373C39.4006 19.0712 38.2244 16.3842 38.2244 12.9763C38.2244 9.30621 39.4659 6.22599 41.9489 3.73559C44.4318 1.2452 47.6989 0 51.75 0C57.3693 0 61.6818 2.09718 64.6875 6.29153C67.5625 10.617 69 15.5322 69 21.0373C69 28.7706 66.7784 35.9141 62.3352 42.4678C57.892 49.0215 51.0966 54.1989 41.9489 58L38.8125 52.2983C41.8182 50.9876 44.7585 49.1525 47.6335 46.7932C50.5085 44.565 52.9261 41.9435 54.8864 38.9288C56.7159 35.9141 57.6307 32.6373 57.6307 29.0983C57.6307 27.9186 57.5653 26.739 57.4347 25.5593C57.1733 24.3797 56.7159 23.1345 56.0625 21.8237ZM17.8381 21.8237C16.1392 23.2655 13.983 23.9864 11.3693 23.9864C8.49432 23.9864 5.88068 23.0034 3.52841 21.0373C1.17614 19.0712 0 16.3842 0 12.9763C0 9.30621 1.24148 6.22599 3.72444 3.73559C6.20739 1.2452 9.47443 0 13.5256 0C19.1449 0 23.4574 2.09718 26.4631 6.29153C29.3381 10.617 30.7756 15.5322 30.7756 21.0373C30.7756 28.7706 28.554 35.9141 24.1108 42.4678C19.6676 49.0215 12.8722 54.1989 3.72444 58L0.588074 52.2983C3.59376 50.9876 6.5341 49.1525 9.40909 46.7932C12.2841 44.565 14.7017 41.9435 16.6619 38.9288C18.4915 35.9141 19.4062 32.6373 19.4062 29.0983C19.4063 27.9186 19.3409 26.739 19.2102 25.5593C18.9489 24.3797 18.4915 23.1345 17.8381 21.8237Z" fill="#747F8A"/>
</svg>
