<svg width="100" height="101" viewBox="0 0 100 101" fill="none" xmlns="http://www.w3.org/2000/svg">
<circle cx="50" cy="50.0865" r="50" fill="#DD3322"/>
<g clip-path="url(#clip0_208_776)">
<path d="M41.3125 26.1865L45.6625 33.5865H45.5H36.5C33.7375 33.5865 31.5 31.349 31.5 28.5865C31.5 25.824 33.7375 23.5865 36.5 23.5865H36.775C38.6375 23.5865 40.375 24.574 41.3125 26.1865ZM25.5 28.5865C25.5 30.3865 25.9375 32.0865 26.7 33.5865H21.5C19.2875 33.5865 17.5 35.374 17.5 37.5865V45.5865C17.5 47.799 19.2875 49.5865 21.5 49.5865H77.5C79.7125 49.5865 81.5 47.799 81.5 45.5865V37.5865C81.5 35.374 79.7125 33.5865 77.5 33.5865H72.3C73.0625 32.0865 73.5 30.3865 73.5 28.5865C73.5 22.5115 68.575 17.5865 62.5 17.5865H62.225C58.2375 17.5865 54.5375 19.699 52.5125 23.1365L49.5 28.274L46.4875 23.149C44.4625 19.699 40.7625 17.5865 36.775 17.5865H36.5C30.425 17.5865 25.5 22.5115 25.5 28.5865ZM67.5 28.5865C67.5 31.349 65.2625 33.5865 62.5 33.5865H53.5H53.3375L57.6875 26.1865C58.6375 24.574 60.3625 23.5865 62.225 23.5865H62.5C65.2625 23.5865 67.5 25.824 67.5 28.5865ZM21.5 53.5865V75.5865C21.5 78.899 24.1875 81.5865 27.5 81.5865H45.5V53.5865H21.5ZM53.5 81.5865H71.5C74.8125 81.5865 77.5 78.899 77.5 75.5865V53.5865H53.5V81.5865Z" fill="white"/>
</g>
<defs>
<clipPath id="clip0_208_776">
<rect width="64" height="64" fill="white" transform="translate(17.5 17.5865)"/>
</clipPath>
</defs>
</svg>
