<svg width="100" height="101" viewBox="0 0 100 101" fill="none" xmlns="http://www.w3.org/2000/svg">
<circle cx="50" cy="50.0865" r="50" fill="#DD3322"/>
<g clip-path="url(#clip0_208_750)">
<path d="M35.5457 66.9403L31.985 63.3795C31.0055 62.4 30.6598 60.9827 31.0976 59.669C31.4433 58.6434 31.9043 57.3067 32.4574 55.7741H20.2656C19.2746 55.7741 18.3527 55.244 17.8572 54.3797C17.3617 53.5155 17.3732 52.4553 17.8803 51.6026L23.9301 41.4043C25.4281 38.8807 28.1361 37.3366 31.0631 37.3366H40.5469C40.8234 36.8756 41.1 36.4493 41.3766 36.0344C50.8142 22.1141 64.8728 21.6532 73.2619 23.1973C74.5986 23.4393 75.6357 24.4879 75.8892 25.8246C77.4334 34.2252 76.9609 48.2723 63.0521 57.71C62.6488 57.9866 62.2109 58.2631 61.75 58.5397V68.0235C61.75 70.9504 60.2059 73.67 57.6822 75.1565L47.484 81.2063C46.6312 81.7133 45.5711 81.7248 44.7068 81.2293C43.8426 80.7338 43.3125 79.8235 43.3125 78.8209V66.4678C41.6877 67.0325 40.2703 67.4934 39.1986 67.8391C37.908 68.2539 36.5021 67.8967 35.5342 66.9403H35.5457ZM61.75 41.9459C62.9725 41.9459 64.1449 41.4603 65.0093 40.5959C65.8737 39.7315 66.3594 38.559 66.3594 37.3366C66.3594 36.1141 65.8737 34.9417 65.0093 34.0772C64.1449 33.2128 62.9725 32.7272 61.75 32.7272C60.5275 32.7272 59.3551 33.2128 58.4907 34.0772C57.6262 34.9417 57.1406 36.1141 57.1406 37.3366C57.1406 38.559 57.6262 39.7315 58.4907 40.5959C59.3551 41.4603 60.5275 41.9459 61.75 41.9459Z" fill="white"/>
</g>
<defs>
<clipPath id="clip0_208_750">
<rect width="59" height="59" fill="white" transform="translate(17.5 22.5865)"/>
</clipPath>
</defs>
</svg>
