<svg width="100" height="101" viewBox="0 0 100 101" fill="none" xmlns="http://www.w3.org/2000/svg">
<circle cx="50" cy="50.0865" r="50" fill="#DD3322"/>
<g clip-path="url(#clip0_208_833)">
<path d="M52.7111 23.5865C52.1222 22.3643 50.8778 21.5865 49.5111 21.5865C48.1444 21.5865 46.9111 22.3643 46.3111 23.5865L39.1667 38.2865L23.2111 40.6421C21.8778 40.8421 20.7667 41.7754 20.3556 43.0532C19.9444 44.3309 20.2778 45.7421 21.2333 46.6865L32.8111 58.1421L30.0778 74.3309C29.8556 75.6643 30.4111 77.0198 31.5111 77.8087C32.6111 78.5976 34.0667 78.6976 35.2667 78.0643L49.5222 70.4532L63.7778 78.0643C64.9778 78.6976 66.4333 78.6087 67.5333 77.8087C68.6333 77.0087 69.1889 75.6643 68.9667 74.3309L66.2222 58.1421L77.8 46.6865C78.7556 45.7421 79.1 44.3309 78.6778 43.0532C78.2556 41.7754 77.1556 40.8421 75.8222 40.6421L59.8556 38.2865L52.7111 23.5865Z" fill="white"/>
</g>
<defs>
<clipPath id="clip0_208_833">
<rect width="64" height="56.8889" fill="white" transform="translate(17.5 21.5865)"/>
</clipPath>
</defs>
</svg>
