<svg width="75" height="75" viewBox="0 0 75 75" fill="none" xmlns="http://www.w3.org/2000/svg">
<circle cx="37.5" cy="37.5" r="37.5" fill="#DD3322"/>
<g clip-path="url(#clip0_119_4112)">
<path d="M20.7 25.4797V42.2797C20.7 44.9272 22.8525 47.0797 25.5 47.0797H56.7C59.3475 47.0797 61.5 44.9272 61.5 42.2797V25.4797C61.5 22.8322 59.3475 20.6797 56.7 20.6797H25.5C22.8525 20.6797 20.7 22.8322 20.7 25.4797ZM25.5 37.4797C28.1475 37.4797 30.3 39.6322 30.3 42.2797H25.5V37.4797ZM30.3 25.4797C30.3 28.1272 28.1475 30.2797 25.5 30.2797V25.4797H30.3ZM56.7 37.4797V42.2797H51.9C51.9 39.6322 54.0525 37.4797 56.7 37.4797ZM51.9 25.4797H56.7V30.2797C54.0525 30.2797 51.9 28.1272 51.9 25.4797ZM35.1 33.8797C35.1 32.2884 35.7321 30.7623 36.8574 29.637C37.9826 28.5118 39.5087 27.8797 41.1 27.8797C42.6913 27.8797 44.2174 28.5118 45.3426 29.637C46.4679 30.7623 47.1 32.2884 47.1 33.8797C47.1 35.471 46.4679 36.9971 45.3426 38.1223C44.2174 39.2475 42.6913 39.8797 41.1 39.8797C39.5087 39.8797 37.9826 39.2475 36.8574 38.1223C35.7321 36.9971 35.1 35.471 35.1 33.8797ZM17.1 27.2797C17.1 26.2822 16.2975 25.4797 15.3 25.4797C14.3025 25.4797 13.5 26.2822 13.5 27.2797V45.2797C13.5 50.2522 17.5275 54.2797 22.5 54.2797H52.5C53.4975 54.2797 54.3 53.4772 54.3 52.4797C54.3 51.4822 53.4975 50.6797 52.5 50.6797H22.5C19.515 50.6797 17.1 48.2647 17.1 45.2797V27.2797Z" fill="white"/>
</g>
<defs>
<clipPath id="clip0_119_4112">
<rect width="48" height="38.4" fill="white" transform="translate(13.5 18.2812)"/>
</clipPath>
</defs>
</svg>
