<svg width="75" height="75" viewBox="0 0 75 75" fill="none" xmlns="http://www.w3.org/2000/svg">
<circle cx="37.5" cy="37.5" r="37.5" fill="#DD3322"/>
<g clip-path="url(#clip0_119_4104)">
<path d="M26.6594 50.1401L23.9888 47.4696C23.2542 46.735 22.9949 45.6719 23.3234 44.6867C23.5826 43.9175 23.9283 42.9149 24.3432 41.7655H15.1993C14.4561 41.7655 13.7647 41.3679 13.393 40.7197C13.0214 40.0715 13.03 39.2764 13.4103 38.6369L17.9477 30.9882C19.0712 29.0954 21.1022 27.9373 23.2974 27.9373H30.4103C30.6177 27.5916 30.8251 27.2719 31.0325 26.9607C38.1108 16.5205 48.6548 16.1748 54.9465 17.3329C55.9491 17.5144 56.7269 18.3009 56.9171 19.3034C58.0752 25.6038 57.7208 36.1391 47.2892 43.2174C46.9867 43.4248 46.6583 43.6323 46.3126 43.8397V50.9525C46.3126 53.1477 45.1545 55.1874 43.2618 56.3023L35.6131 60.8396C34.9736 61.2199 34.1784 61.2286 33.5302 60.8569C32.882 60.4853 32.4845 59.8025 32.4845 59.0506V49.7858C31.2659 50.2093 30.2028 50.555 29.3991 50.8142C28.4311 51.1254 27.3767 50.8575 26.6507 50.1401H26.6594ZM46.3126 31.3944C47.2295 31.3944 48.1088 31.0302 48.7571 30.3818C49.4054 29.7335 49.7696 28.8542 49.7696 27.9373C49.7696 27.0205 49.4054 26.1412 48.7571 25.4929C48.1088 24.8445 47.2295 24.4803 46.3126 24.4803C45.3958 24.4803 44.5164 24.8445 43.8681 25.4929C43.2198 26.1412 42.8556 27.0205 42.8556 27.9373C42.8556 28.8542 43.2198 29.7335 43.8681 30.3818C44.5164 31.0302 45.3958 31.3944 46.3126 31.3944Z" fill="white"/>
</g>
<defs>
<clipPath id="clip0_119_4104">
<rect width="44.25" height="44.25" fill="white" transform="translate(13.125 16.875)"/>
</clipPath>
</defs>
</svg>
